<svg xmlns:dc="http://purl.org/dc/elements/1.1/" xmlns:cc="http://creativecommons.org/ns#" xmlns:rdf="http://www.w3.org/1999/02/22-rdf-syntax-ns#" xmlns:svg="http://www.w3.org/2000/svg" xmlns="http://www.w3.org/2000/svg" viewBox="0 0 280 280" fill="none"><metadata><rdf:RDF><cc:Work><dc:format>image/svg+xml</dc:format><dc:type rdf:resource="http://purl.org/dc/dcmitype/StillImage"/><dc:title>Avataaars</dc:title><dc:creator><cc:Agent><dc:title>Pablo Stanley</dc:title></cc:Agent></dc:creator><dc:source>https://avataaars.com/</dc:source><cc:license rdf:resource="https://avataaars.com/"/><dc:contributor><cc:Agent><dc:title>Florian Körner</dc:title></cc:Agent></dc:contributor></cc:Work></rdf:RDF></metadata><mask id="avatarsRadiusMask"><rect width="280" height="280" rx="0" ry="0" x="0" y="0" fill="#fff"/></mask><g mask="url(#avatarsRadiusMask)"><g transform="translate(0 5.6000000000000005)"><g transform="translate(40, 36)"><path d="M100 0C69.072 0 44 25.072 44 56v6.166c-5.675.952-10 5.888-10 11.834v14c0 6.052 4.48 11.058 10.305 11.881 2.067 19.806 14.458 36.541 31.695 44.73V163h-4c-39.764 0-72 32.236-72 72v9h200v-9c0-39.764-32.236-72-72-72h-4v-18.389c17.237-8.189 29.628-24.924 31.695-44.73C161.52 99.058 166 94.052 166 88V74c0-5.946-4.325-10.882-10-11.834V56c0-30.928-25.072-56-56-56z" fill="#D08B5B"/><path d="M76 144.611v8A55.79 55.79 0 00100 158a55.789 55.789 0 0024-5.389v-8A55.789 55.789 0 01100 150a55.79 55.79 0 01-24-5.389z" fill="#000" fill-opacity=".1"/></g><g transform="translate(8, 170)"><path d="M108 14.694C92.484 18.38 80.895 25.529 77.228 34.142 50.72 44.765 32 70.696 32 101v9h200v-9.001c0-30.303-18.721-56.234-45.228-66.858-3.667-8.613-15.256-15.761-30.772-19.447V32c0 13.255-10.745 24-24 24s-24-10.745-24-24V14.694z" fill="#B1E2FF"/><path d="M102 63.337a67.11 67.11 0 01-7-2.817V110h7V63.337zm60 0a67.039 67.039 0 007-2.817V98.5a3.5 3.5 0 11-7 0V63.337z" fill="#F4F4F4"/><path d="M187.62 34.488a71.788 71.788 0 0110.832 5.628C197.107 55.615 167.87 68 132 68c30.928 0 56-13.431 56-30 0-1.188-.129-2.36-.38-3.512zm-111.24 0A16.477 16.477 0 0076 38c0 16.569 25.072 30 56 30-35.87 0-65.107-12.385-66.452-27.884a71.783 71.783 0 0110.832-5.628z" fill="#000" fill-opacity=".16"/></g><g transform="translate(86, 134)"><path fill-rule="evenodd" clip-rule="evenodd" d="M35.118 15.128C36.176 24.62 44.226 32 54 32c9.804 0 17.874-7.426 18.892-16.96.082-.767-.775-2.04-1.85-2.04H37.088c-1.08 0-2.075 1.178-1.97 2.128z" fill="#000" fill-opacity=".7"/><path d="M70 13H39a5 5 0 005 5h21a5 5 0 005-5z" fill="#fff"/><path d="M66.694 27.138A10.964 10.964 0 0059 24c-1.8 0-3.5.433-5 1.2-1.5-.767-3.2-1.2-5-1.2-2.995 0-5.71 1.197-7.693 3.138A18.93 18.93 0 0054 32c4.88 0 9.329-1.84 12.694-4.862z" fill="#FF4F6D"/></g><g transform="translate(112, 122)"><path fill-rule="evenodd" clip-rule="evenodd" d="M16 8c0 4.418 5.373 8 12 8s12-3.582 12-8" fill="#000" fill-opacity=".16"/></g><g transform="translate(84, 90)"><path fill-rule="evenodd" clip-rule="evenodd" d="M16.16 22.447C18.007 18.648 22.164 16 26.998 16c4.816 0 8.961 2.63 10.817 6.407.552 1.122-.233 2.04-1.024 1.36-2.451-2.107-5.932-3.423-9.793-3.423-3.74 0-7.124 1.235-9.56 3.228-.891.728-1.818-.014-1.278-1.125zm58 0C76.007 18.648 80.164 16 84.998 16c4.816 0 8.961 2.63 10.817 6.407.552 1.122-.233 2.04-1.024 1.36-2.451-2.107-5.932-3.423-9.793-3.423-3.74 0-7.124 1.235-9.56 3.228-.891.728-1.818-.014-1.278-1.125z" fill="#000" fill-opacity=".6"/></g><g transform="translate(84, 82)"><path d="M15.63 17.159c3.915-5.51 14.648-8.598 23.893-6.328a2 2 0 10.954-3.884C29.74 4.31 17.312 7.887 12.37 14.84a2 2 0 103.26 2.318zm80.74 0c-3.915-5.51-14.648-8.598-23.893-6.328a2 2 0 11-.954-3.884c10.737-2.637 23.165.94 28.108 7.894a2 2 0 01-3.26 2.318z" fill="#000" fill-opacity=".6"/></g><g transform="translate(7, 0)"><path fill-rule="evenodd" clip-rule="evenodd" d="M65.996 77.34A68.436 68.436 0 0065 89v48c0 .973.02 1.942.06 2.905-.02.823-.04 1.527-.06 2.095.138 3.68-1.857 11.795-4.34 21.897-3.876 15.776-8.944 36.399-8.944 52.549 0 13.015 1.983 22.845 3.89 32.297C57.582 258.528 59.475 267.908 59 280h47s-.948-13.209-2.473-26.357c10.051 10.206 22.824 16.833 39.05 16.833 70.549 0 77.623-53.827 77.623-65.233 0-6.04-4.322-10.885-8.386-15.441-3.612-4.049-7.02-7.869-7.011-12.097.009-4.353 1.03-7.395 2.08-10.523 1.117-3.327 2.267-6.753 2.267-11.962 0-5.82-1.432-7.51-2.909-9.255-1.088-1.284-2.201-2.598-2.785-5.611-.881-4.546-1.863-14.324-2.456-20.776V89c0-37.555-30.445-68-68-68-33.487 0-61.321 24.206-66.958 56.076L66 77l-.004.34zM133 53c-30.1 0-55 24.4-55 54.5v23c0 30.1 24.9 54.5 55 54.5s55-24.4 55-54.5v-23c0-30.1-24.9-54.5-55-54.5z" fill="#FF488E"/><path d="M193.926 104.96A61.39 61.39 0 00195 93.5c0-33.965-27.758-61.5-62-61.5-34.242 0-62 27.535-62 61.5 0 3.916.369 7.747 1.074 11.46C73.66 72.683 100.33 47 133 47s59.341 25.683 60.926 57.96z" fill="#fff" fill-opacity=".5"/><path d="M78.073 104.686A54.7 54.7 0 0078 107.5v23c0 30.1 24.9 54.5 55 54.5s55-24.4 55-54.5v-23c0-.944-.024-1.882-.073-2.814A54.72 54.72 0 01189 115.5v23c0 30.1-24.4 54.5-54.5 54.5h-3c-30.1 0-54.5-24.4-54.5-54.5v-23c0-3.703.37-7.319 1.073-10.814zm108.977 89.458c-4.388 6.903-17.904 13.661-34.645 16.612-16.742 2.952-31.754 1.225-38.238-3.761.022.261.056.521.101.78 1.71 9.695 19.427 14.675 39.572 11.123 20.145-3.553 35.091-14.292 33.381-23.987a9.041 9.041 0 00-.171-.767zm11.61 15.344c-2.641 9.597-14.874 20.212-31.556 26.284-16.682 6.072-32.877 5.803-41.069.149.096.338.205.673.326 1.005 4.527 12.437 24.47 16.596 44.544 9.29 20.074-7.307 32.678-23.312 28.151-35.749a14.938 14.938 0 00-.396-.979z" opacity=".9" fill="#000" fill-opacity=".16"/></g></g></g></svg>